<svg width="201" height="38" viewBox="0 0 201 38" fill="none" xmlns="http://www.w3.org/2000/svg">
<path d="M20.3662 27.0921C17.899 26.2079 15.5674 23.7209 15.5674 19.6133V0H7.71959V19.6133C7.71959 27.1134 12.2171 32.4843 17.7111 34.4532C23.048 36.3659 29.6642 35.0555 33.0846 29.1308L33.2841 28.7653C34.9694 25.3525 35.1675 21.875 34.0302 18.8085C32.8786 15.7032 30.4889 13.3728 27.6922 12.0657C24.393 10.5238 20.448 10.3602 16.8797 11.9096V19.6133C16.8797 20.3631 16.968 21.044 17.1259 21.6583C19.2808 18.388 22.3014 18.1859 24.3606 19.1483C25.5084 19.6847 26.312 20.5573 26.6693 21.5207C26.982 22.364 27.0704 23.5876 26.2867 25.2214C25.09 27.2802 22.8231 27.9726 20.3662 27.0921Z" fill="#3A4152"/>
<path d="M6.77395 23.3529C7.42227 26.5626 8.89113 29.2991 10.8658 31.4363C9.7838 33.092 8.75313 34.6631 7.97175 35.8524C7.54432 36.5031 7.19132 37.0397 6.9451 37.4138C6.82199 37.6009 6.72556 37.7473 6.65987 37.8471L6.55912 38C6.55904 38.0001 6.559 38.0002 3.27946 35.8527C-8.2828e-05 33.7053 0 33.7052 0 33.7052L0.0995025 33.5541C0.164747 33.455 0.260689 33.3093 0.383289 33.1231C0.628497 32.7505 0.980302 32.2157 1.40639 31.5671C2.2587 30.2697 3.40756 28.5183 4.59465 26.7006C5.33686 25.5641 6.08182 24.4202 6.77395 23.3529Z" fill="#3A4152"/>
<path d="M39.9023 34.5491C41.8889 34.5491 43.4992 32.9439 43.4992 30.9638C43.4992 28.9837 41.8889 27.3785 39.9023 27.3785C37.9158 27.3785 36.3054 28.9837 36.3054 30.9638C36.3054 32.9439 37.9158 34.5491 39.9023 34.5491Z" fill="#3A4152"/>
<path d="M66.7229 15.2473C68.8123 15.2473 70.5974 16.0156 72.0782 17.5523C73.559 19.089 74.2994 20.9795 74.2994 23.2239C74.2994 25.4481 73.559 27.3386 72.0782 28.8955C70.5974 30.4322 68.8123 31.2005 66.7229 31.2005C64.4104 31.2005 62.6355 30.3412 61.3981 28.6225V30.8062H58.1119V9.57566H61.3981V17.7949C62.6355 16.0965 64.4104 15.2473 66.7229 15.2473ZM62.7673 26.7118C63.6802 27.6217 64.8263 28.0766 66.2057 28.0766C67.585 28.0766 68.7311 27.6217 69.644 26.7118C70.5568 25.7817 71.0132 24.619 71.0132 23.2239C71.0132 21.8287 70.5568 20.6762 69.644 19.7663C68.7311 18.8362 67.585 18.3712 66.2057 18.3712C64.8263 18.3712 63.6802 18.8362 62.7673 19.7663C61.8545 20.6762 61.3981 21.8287 61.3981 23.2239C61.3981 24.619 61.8545 25.7817 62.7673 26.7118Z" fill="#3A4152"/>
<path d="M79.8641 24.619C80.1075 25.7716 80.6654 26.6612 81.5376 27.288C82.4099 27.8946 83.4749 28.1979 84.7325 28.1979C86.4771 28.1979 87.7854 27.5711 88.6577 26.3175L91.3658 27.8946C89.8647 30.0986 87.6434 31.2005 84.7021 31.2005C82.2273 31.2005 80.2292 30.4524 78.7079 28.9562C77.1865 27.4397 76.4258 25.5289 76.4258 23.2239C76.4258 20.9593 77.1763 19.0688 78.6774 17.5523C80.1785 16.0156 82.1056 15.2473 84.4587 15.2473C86.69 15.2473 88.5157 16.0257 89.9357 17.5826C91.3759 19.1395 92.096 21.0301 92.096 23.2542C92.096 23.598 92.0555 24.0529 91.9743 24.619H79.8641ZM79.8337 21.9501H88.7794C88.5563 20.7167 88.039 19.7866 87.2276 19.1598C86.4365 18.5329 85.5034 18.2195 84.4283 18.2195C83.2112 18.2195 82.1969 18.5532 81.3855 19.2204C80.5741 19.8877 80.0568 20.7975 79.8337 21.9501Z" fill="#3A4152"/>
<path d="M103.002 18.7958H99.2285V26.0749C99.2285 26.7017 99.3705 27.1566 99.6545 27.4397C99.9384 27.7025 100.354 27.8542 100.902 27.8946C101.47 27.9148 102.17 27.9047 103.002 27.8643V30.8062C100.486 31.1095 98.6808 30.8972 97.5854 30.1693C96.49 29.4212 95.9423 28.0564 95.9423 26.0749V18.7958H93.1429V15.6415H95.9423V12.366L99.2285 11.3954V15.6415H103.002V18.7958Z" fill="#3A4152"/>
<path d="M117.407 15.6415H120.694V30.8062H117.407V28.6225C116.17 30.3412 114.395 31.2005 112.082 31.2005C109.993 31.2005 108.208 30.4322 106.727 28.8955C105.246 27.3386 104.506 25.4481 104.506 23.2239C104.506 20.9795 105.246 19.089 106.727 17.5523C108.208 16.0156 109.993 15.2473 112.082 15.2473C114.395 15.2473 116.17 16.0965 117.407 17.7949V15.6415ZM109.161 26.7118C110.074 27.6217 111.22 28.0766 112.6 28.0766C113.979 28.0766 115.125 27.6217 116.038 26.7118C116.951 25.7817 117.407 24.619 117.407 23.2239C117.407 21.8287 116.951 20.6762 116.038 19.7663C115.125 18.8362 113.979 18.3712 112.6 18.3712C111.22 18.3712 110.074 18.8362 109.161 19.7663C108.249 20.6762 107.792 21.8287 107.792 23.2239C107.792 24.619 108.249 25.7817 109.161 26.7118Z" fill="#3A4152"/>
<path d="M127.386 19.827C127.386 20.3325 127.66 20.7369 128.208 21.0402C128.776 21.3233 129.455 21.576 130.246 21.7984C131.058 22.0006 131.869 22.2432 132.681 22.5263C133.492 22.8094 134.172 23.2947 134.719 23.9821C135.287 24.6494 135.571 25.4986 135.571 26.5298C135.571 27.9856 135.003 29.128 133.867 29.957C132.752 30.786 131.342 31.2005 129.638 31.2005C128.137 31.2005 126.849 30.8871 125.774 30.2603C124.698 29.6335 123.917 28.7641 123.431 27.652L126.26 26.0142C126.788 27.47 127.914 28.1979 129.638 28.1979C131.362 28.1979 132.224 27.6318 132.224 26.4995C132.224 26.0142 131.94 25.6199 131.372 25.3166C130.825 25.0133 130.145 24.7606 129.334 24.5584C128.542 24.336 127.741 24.0832 126.93 23.8002C126.118 23.5171 125.429 23.052 124.861 22.405C124.313 21.7378 124.039 20.8986 124.039 19.8877C124.039 18.4925 124.567 17.3703 125.621 16.5211C126.696 15.6719 128.025 15.2473 129.607 15.2473C130.865 15.2473 131.981 15.5303 132.954 16.0965C133.948 16.6424 134.709 17.4108 135.237 18.4015L132.468 19.9483C131.94 18.7958 130.987 18.2195 129.607 18.2195C128.979 18.2195 128.451 18.3611 128.025 18.6442C127.599 18.907 127.386 19.3013 127.386 19.827Z" fill="#3A4152"/>
<path d="M147.071 15.2473C149.16 15.2473 150.945 16.0257 152.426 17.5826C153.907 19.1193 154.647 20.9997 154.647 23.2239C154.647 25.4683 153.907 27.3588 152.426 28.8955C150.945 30.4322 149.16 31.2005 147.071 31.2005C144.758 31.2005 142.984 30.3513 141.746 28.6529V36.8721H138.46V15.6415H141.746V17.8253C142.984 16.1066 144.758 15.2473 147.071 15.2473ZM143.115 26.7118C144.028 27.6217 145.174 28.0766 146.554 28.0766C147.933 28.0766 149.079 27.6217 149.992 26.7118C150.905 25.7817 151.361 24.619 151.361 23.2239C151.361 21.8287 150.905 20.6762 149.992 19.7663C149.079 18.8362 147.933 18.3712 146.554 18.3712C145.174 18.3712 144.028 18.8362 143.115 19.7663C142.203 20.6762 141.746 21.8287 141.746 23.2239C141.746 24.619 142.203 25.7817 143.115 26.7118Z" fill="#3A4152"/>
<path d="M160.912 18.1892C161.744 16.3088 163.306 15.3686 165.598 15.3686V18.9171C164.34 18.8362 163.245 19.1395 162.312 19.827C161.379 20.4942 160.912 21.6063 160.912 23.1632V30.8062H157.626V15.6415H160.912V18.1892Z" fill="#3A4152"/>
<path d="M171.13 12.7602C170.724 13.1646 170.237 13.3668 169.669 13.3668C169.101 13.3668 168.604 13.1646 168.178 12.7602C167.772 12.3356 167.569 11.8403 167.569 11.2741C167.569 10.708 167.772 10.2227 168.178 9.81829C168.584 9.39368 169.081 9.18138 169.669 9.18138C170.257 9.18138 170.754 9.39368 171.16 9.81829C171.566 10.2227 171.769 10.708 171.769 11.2741C171.769 11.8403 171.556 12.3356 171.13 12.7602ZM168.026 30.8062V15.6415H171.312V30.8062H168.026Z" fill="#3A4152"/>
<path d="M183.13 15.2473C184.875 15.2473 186.284 15.8033 187.36 16.9154C188.435 18.0275 188.972 19.554 188.972 21.4951V30.8062H185.686V21.8287C185.686 20.6964 185.382 19.827 184.773 19.2204C184.165 18.6138 183.333 18.3105 182.278 18.3105C181.122 18.3105 180.189 18.6745 179.479 19.4024C178.769 20.1101 178.414 21.2019 178.414 22.678V30.8062H175.128V15.6415H178.414V17.5826C179.408 16.0257 180.98 15.2473 183.13 15.2473Z" fill="#3A4152"/>
<path d="M201 18.7958H197.227V26.0749C197.227 26.7017 197.369 27.1566 197.653 27.4397C197.937 27.7025 198.353 27.8542 198.9 27.8946C199.468 27.9148 200.168 27.9047 201 27.8643V30.8062C198.485 31.1095 196.679 30.8972 195.584 30.1693C194.488 29.4212 193.941 28.0564 193.941 26.0749V18.7958H191.141V15.6415H193.941V12.366L197.227 11.3954V15.6415H201V18.7958Z" fill="#3A4152"/>
</svg>
