<svg width="122" height="122" viewBox="0 0 122 122" fill="none" xmlns="http://www.w3.org/2000/svg">
<g filter="url(#filter0_b_619_99)">
<circle cx="61" cy="60.9998" r="49" transform="rotate(15 61 60.9998)" fill="white" fill-opacity="0.2"/>
<circle cx="61" cy="60.9998" r="48.5" transform="rotate(15 61 60.9998)" stroke="#F39682"/>
</g>
<rect x="77.09" y="15.6179" width="1" height="20.0474" transform="rotate(19.9063 77.09 15.6179)" fill="#F39682"/>
<rect x="50.9599" y="87.3206" width="1" height="20.0474" transform="rotate(22.1919 50.9599 87.3206)" fill="#F39682"/>
<path d="M78.3099 29.7574L81.9811 25.3037L82.8159 26.0106L82.3777 26.7068C82.7073 26.5996 83.0418 26.578 83.3813 26.6418C83.7266 26.7106 84.0533 26.8754 84.3611 27.136C85.0597 27.7276 85.3158 28.417 85.1292 29.2043C85.5012 29.0823 85.8821 29.0592 86.2719 29.1352C86.6676 29.2161 87.0224 29.3894 87.3361 29.6551C87.8867 30.1213 88.1808 30.6549 88.2182 31.2558C88.2557 31.8567 88.0006 32.4894 87.4528 33.1539L85.3434 35.713L84.402 34.9159L86.4301 32.4556C87.1406 31.5936 87.1703 30.8869 86.519 30.3354C86.1875 30.0547 85.8115 29.9498 85.3911 30.0207C84.9767 30.0967 84.577 30.3681 84.1921 30.8351L82.2973 33.1337L81.3559 32.3367L83.384 29.8764C84.0945 29.0143 84.1212 28.3051 83.4641 27.7487C83.1384 27.4729 82.7654 27.3706 82.3451 27.4415C81.9306 27.5175 81.5309 27.7889 81.146 28.2558L79.2512 30.5545L78.3099 29.7574Z" fill="#F39682"/>
<path d="M88.6101 39.5872C88.2697 39.1542 88.0569 38.6829 87.9717 38.1733C87.8972 37.6648 87.9514 37.1631 88.1341 36.6682C88.3228 36.1684 88.6464 35.721 89.1049 35.3262C89.5635 34.9314 90.0424 34.6879 90.5416 34.5956C91.0515 34.5043 91.5372 34.5515 91.9986 34.7371C92.4659 34.9177 92.8674 35.2215 93.203 35.6484C93.5435 36.0814 93.7509 36.5521 93.8254 37.0607C93.9106 37.5703 93.8589 38.075 93.6702 38.5749C93.4923 39.0758 93.174 39.5237 92.7154 39.9185C92.2568 40.3133 91.7726 40.5563 91.2627 40.6476C90.7635 40.7399 90.2802 40.6958 89.8129 40.5152C89.3515 40.3295 88.9506 40.0202 88.6101 39.5872ZM89.4126 38.8963C89.5948 39.128 89.8185 39.2934 90.0836 39.3924C90.3536 39.4975 90.6452 39.5174 90.9587 39.4521C91.278 39.3817 91.6022 39.2048 91.9315 38.9213C92.2607 38.6379 92.4861 38.3416 92.6078 38.0323C92.7401 37.7241 92.783 37.4213 92.7364 37.1239C92.6947 36.8325 92.5827 36.571 92.4005 36.3393C92.2183 36.1075 91.9923 35.9391 91.7223 35.834C91.4572 35.735 91.165 35.7207 90.8457 35.7911C90.5323 35.8564 90.2109 36.0308 89.8817 36.3142C89.5525 36.5976 89.3241 36.8965 89.1966 37.2108C89.075 37.5201 89.035 37.8204 89.0767 38.1117C89.1185 38.403 89.2304 38.6645 89.4126 38.8963Z" fill="#F39682"/>
<path d="M92.2549 45.162L97.3931 42.5329L97.8397 43.5441L96.9083 44.1382C97.3282 44.1495 97.7069 44.269 98.0444 44.4965C98.392 44.7275 98.6693 45.0772 98.8761 45.5456L97.7262 46.1339L97.5899 45.8252C97.452 45.513 97.2764 45.2592 97.0631 45.0638C96.8598 44.872 96.6044 44.7634 96.2969 44.7381C95.9994 44.7163 95.64 44.8132 95.2187 45.0288L92.7532 46.2903L92.2549 45.162Z" fill="#F39682"/>
<path d="M94.8205 53.5679C94.7121 53.0121 94.7359 52.4866 94.8919 51.9914C95.0569 51.502 95.3337 51.0801 95.7222 50.7256C96.1108 50.3712 96.5946 50.1204 97.1736 49.9733C97.76 49.8244 98.2981 49.8115 98.7877 49.9349C99.2789 50.0659 99.6901 50.313 100.021 50.6764C100.354 51.0474 100.576 51.5184 100.688 52.0895C100.796 52.6453 100.766 53.1604 100.598 53.6346C100.438 54.1069 100.177 54.5088 99.8153 54.8404C99.4538 55.172 99.0287 55.3998 98.54 55.524C98.4648 55.5431 98.3813 55.5603 98.2896 55.5756C98.2069 55.5966 98.1122 55.6167 98.0054 55.6358L97.1458 51.2271C96.6118 51.4027 96.2332 51.6867 96.0098 52.079C95.7955 52.4771 95.7299 52.8894 95.813 53.3158C95.8798 53.6584 96.0107 53.9249 96.2056 54.1151C96.4095 54.311 96.6542 54.4327 96.9396 54.48L97.1757 55.6907C96.6197 55.6721 96.1204 55.4793 95.678 55.1122C95.237 54.7527 94.9512 54.238 94.8205 53.5679ZM99.7041 52.3273C99.6254 51.9238 99.4353 51.5965 99.1338 51.3454C98.8398 51.0924 98.4493 50.9918 97.9623 51.0436L98.5859 54.2417C99.0175 54.108 99.3329 53.8641 99.5322 53.5098C99.7314 53.1555 99.7887 52.7614 99.7041 52.3273Z" fill="#F39682"/>
<path d="M93.2575 63.8954L101.573 64.4184L101.48 65.52L100.575 65.5913C100.83 65.7939 101.049 66.0641 101.23 66.4019C101.412 66.7397 101.481 67.1637 101.438 67.6739C101.391 68.2305 101.218 68.7131 100.919 69.1217C100.62 69.5303 100.232 69.84 99.7545 70.0509C99.2768 70.2696 98.7476 70.3606 98.167 70.3241C97.5863 70.2876 97.078 70.1313 96.6421 69.8552C96.2132 69.5873 95.8852 69.2325 95.6578 68.7908C95.4382 68.3495 95.3523 67.8468 95.3999 67.2825C95.4378 66.8341 95.5605 66.4416 95.7679 66.1049C95.9747 65.776 96.2492 65.5213 96.5914 65.3407L93.1537 65.1245L93.2575 63.8954ZM96.486 67.1409C96.4416 67.6666 96.5831 68.1107 96.9106 68.4732C97.2457 68.8362 97.7037 69.036 98.2843 69.0725C98.6637 69.0964 99.007 69.0403 99.3143 68.9042C99.6216 68.7681 99.8679 68.5699 100.053 68.3095C100.247 68.0497 100.358 67.742 100.388 67.3864C100.433 66.8607 100.287 66.4164 99.9521 66.0534C99.6163 65.6981 99.1619 65.5024 98.5889 65.4664C98.0082 65.4299 97.5219 65.5664 97.1299 65.8759C96.7451 66.1936 96.5304 66.6153 96.486 67.1409Z" fill="#F39682"/>
<path d="M94.4163 73.6799L99.8738 75.5586L99.522 76.6066L98.4544 76.3499C98.7496 76.6648 98.9432 77.0268 99.035 77.4358C99.1317 77.8547 99.0985 78.3068 98.9356 78.7922L97.7143 78.3718L97.8217 78.0519C97.9303 77.7283 97.9728 77.4188 97.9492 77.1236C97.9304 76.8381 97.8186 76.574 97.6137 76.3312C97.4137 76.0983 97.0899 75.9048 96.6425 75.7508L94.0238 74.8493L94.4163 73.6799Z" fill="#F39682"/>
<path d="M90.5942 81.5655C90.8846 81.0975 91.2496 80.7446 91.6891 80.5068C92.131 80.28 92.6064 80.1828 93.1155 80.2154C93.6309 80.2523 94.1402 80.4389 94.6432 80.7752C95.1463 81.1115 95.5173 81.5135 95.7564 81.9811C95.9978 82.4596 96.1051 82.9557 96.0783 83.4694C96.058 83.9874 95.9047 84.4772 95.6184 84.9386C95.3279 85.4066 94.9618 85.754 94.5199 85.9809C94.0804 86.2186 93.6029 86.3191 93.0874 86.2822C92.5743 86.2562 92.0662 86.0751 91.5632 85.7388C91.0601 85.4025 90.6879 84.995 90.4465 84.5165C90.2074 84.0489 90.0981 83.5561 90.1184 83.0381C90.1452 82.5244 90.3038 82.0335 90.5942 81.5655ZM91.4745 82.1541C91.319 82.4045 91.2372 82.6762 91.2288 82.9691C91.2163 83.2685 91.2885 83.5639 91.4453 83.8553C91.6086 84.151 91.8708 84.4196 92.2319 84.661C92.5931 84.9025 92.9339 85.0371 93.2543 85.0648C93.5771 85.1034 93.8672 85.0549 94.1248 84.9193C94.3782 84.7903 94.5826 84.6005 94.7381 84.35C94.8935 84.0995 94.9774 83.8246 94.9899 83.5251C94.9982 83.2322 94.9208 82.938 94.7575 82.6423C94.6007 82.3509 94.3417 82.0845 93.9806 81.843C93.6194 81.6016 93.2754 81.4648 92.9485 81.4328C92.6281 81.4051 92.3412 81.4558 92.0878 81.5848C91.8343 81.7138 91.6299 81.9036 91.4745 82.1541Z" fill="#F39682"/>
<path d="M90.5871 92.9623C90.7495 92.7956 90.9323 92.7079 91.1355 92.6992C91.3385 92.7017 91.5138 92.7827 91.6615 92.942C91.8091 93.1013 91.8789 93.285 91.871 93.493C91.8629 93.7123 91.7777 93.9053 91.6153 94.072C91.4529 94.2387 91.2702 94.3208 91.0672 94.3183C90.864 94.327 90.6886 94.2517 90.541 94.0924C90.3934 93.933 90.3236 93.7437 90.3317 93.5245C90.3396 93.3164 90.4248 93.1291 90.5871 92.9623ZM85.4638 84.7313L86.1756 85.4995L85.8589 85.8246C85.6695 86.0191 85.5737 86.2007 85.5716 86.3694C85.5642 86.5325 85.6501 86.7107 85.8294 86.9042L90.2822 91.7098L89.4215 92.5934L84.9609 87.7793C84.5338 87.3183 84.3389 86.8743 84.3763 86.4473C84.4084 86.0146 84.6221 85.5954 85.0172 85.1898L85.4638 84.7313Z" fill="#F39682"/>
<path d="M80.4706 91.8528C80.9453 91.544 81.4295 91.3768 81.9232 91.3512C82.4142 91.3366 82.8752 91.4571 83.3063 91.7125C83.7374 91.9679 84.101 92.355 84.397 92.8739C84.6969 93.3994 84.8595 93.9265 84.8847 94.4552C84.9035 94.9882 84.7942 95.4843 84.557 95.9436C84.3132 96.4071 83.9475 96.7975 83.4598 97.1148C82.9851 97.4236 82.5088 97.5811 82.0307 97.5872C81.5566 97.6001 81.1181 97.488 80.7154 97.2511C80.3128 97.0142 79.9865 96.6767 79.7365 96.2388C79.6981 96.1714 79.6591 96.0952 79.6194 96.0101C79.5771 95.936 79.5323 95.8496 79.485 95.7511L83.25 93.3014C82.9406 92.8374 82.5764 92.5663 82.1571 92.4879C81.7353 92.4205 81.3423 92.5053 80.9781 92.7422C80.6855 92.9326 80.4801 93.1586 80.3619 93.4203C80.2411 93.693 80.1992 93.979 80.2362 94.2783L79.2023 94.951C79.0633 94.3947 79.0984 93.8313 79.3079 93.2607C79.5108 92.6944 79.8984 92.2251 80.4706 91.8528ZM82.9678 96.2291C83.3124 96.0049 83.5565 95.6982 83.7001 95.3092C83.8475 94.9268 83.8294 94.5044 83.6457 94.0418L80.9146 95.8187C81.1571 96.1969 81.4673 96.4201 81.8451 96.4884C82.2229 96.5567 82.5972 96.4703 82.9678 96.2291Z" fill="#F39682"/>
<path d="M71.8163 96.0222C72.3571 95.8542 72.874 95.8275 73.367 95.9421C73.8526 96.059 74.2733 96.2974 74.629 96.6575C74.9793 97.0273 75.2282 97.5016 75.3759 98.0804C75.5237 98.6592 75.5346 99.2034 75.4088 99.7131C75.2775 100.232 75.0323 100.682 74.6733 101.061C74.3069 101.443 73.8533 101.717 73.3125 101.885C72.6309 102.097 72.0144 102.094 71.463 101.876C70.9042 101.66 70.4795 101.265 70.1888 100.69L71.4224 100.306C71.5751 100.592 71.7995 100.781 72.0955 100.876C72.3915 100.971 72.7099 100.965 73.0507 100.859C73.3396 100.77 73.5871 100.612 73.7932 100.385C74.0013 100.166 74.1429 99.8913 74.2182 99.5596C74.2954 99.2355 74.2813 98.8667 74.1758 98.4532C74.0703 98.0398 73.907 97.7133 73.6859 97.4737C73.4668 97.2416 73.2158 97.0883 72.9329 97.0139C72.6501 96.9396 72.3642 96.9472 72.0753 97.037C71.7345 97.1428 71.4602 97.3213 71.2524 97.5725C71.0446 97.8236 70.944 98.1185 70.9505 98.4573L69.7169 98.8404C69.6894 98.2 69.862 97.6231 70.2348 97.1098C70.6075 96.5964 71.1347 96.2339 71.8163 96.0222Z" fill="#F39682"/>
<path d="M63.3989 97.5828C63.9646 97.556 64.4161 97.6705 64.7534 97.9262C65.0908 98.1897 65.2648 98.6743 65.2754 99.3802L65.3184 102.231L66.3064 102.184L66.322 103.22L65.334 103.266L65.2049 104.74L64.124 104.791L64.1019 103.325L62.4746 103.402L62.459 102.366L64.0863 102.289L64.0433 99.4386C64.0385 99.1205 63.9693 98.9026 63.8357 98.7847C63.6945 98.675 63.4573 98.628 63.1241 98.6438L62.4615 98.6751L62.4458 97.628L63.3989 97.5828Z" fill="#F39682"/>
<path d="M56.0578 96.7647C56.7723 96.91 57.3248 97.2045 57.715 97.648C58.1052 98.0916 58.2738 98.6088 58.2208 99.1997L57.0007 98.9514C56.9942 98.681 56.8969 98.4276 56.7088 98.1914C56.5191 97.9629 56.238 97.8107 55.8655 97.7349C55.5006 97.6606 55.2185 97.6824 55.0193 97.8002C54.8201 97.918 54.6997 98.0756 54.6582 98.273C54.5975 98.5615 54.6746 98.779 54.8895 98.9257C55.0952 99.0784 55.3945 99.2382 55.7874 99.4052C56.0923 99.5385 56.3925 99.6946 56.6878 99.8734C56.9755 100.051 57.2042 100.263 57.3739 100.512C57.5345 100.766 57.5772 101.072 57.5021 101.428C57.3982 101.922 57.1219 102.293 56.6731 102.542C56.2227 102.799 55.6554 102.858 54.9712 102.718C54.3403 102.59 53.8629 102.335 53.5391 101.952C53.2077 101.568 53.0661 101.092 53.1143 100.524L54.2774 100.76C54.2643 101.011 54.3384 101.224 54.4997 101.399C54.6534 101.573 54.8861 101.692 55.1977 101.755C55.5018 101.817 55.7511 101.8 55.9455 101.705C56.1383 101.618 56.2555 101.476 56.297 101.278C56.3385 101.081 56.2573 100.902 56.0532 100.742C55.8415 100.58 55.5551 100.415 55.1942 100.246C54.8317 100.086 54.5028 99.9157 54.2074 99.7369C53.9029 99.5641 53.6742 99.3513 53.5213 99.0986C53.3684 98.8458 53.335 98.5144 53.4213 98.1045C53.5223 97.5867 53.8141 97.1988 54.2965 96.9407C54.7713 96.681 55.3584 96.6224 56.0578 96.7647Z" fill="#F39682"/>
<path d="M43.0057 93.1784L39.3345 97.6321L38.4997 96.9252L38.9379 96.229C38.6083 96.3362 38.2738 96.3578 37.9343 96.294C37.5889 96.2252 37.2623 96.0604 36.9545 95.7998C36.2558 95.2082 35.9998 94.5188 36.1864 93.7315C35.8144 93.8535 35.4334 93.8766 35.0437 93.8006C34.648 93.7197 34.2932 93.5464 33.9794 93.2807C33.4288 92.8145 33.1348 92.2809 33.0973 91.68C33.0599 91.0791 33.315 90.4464 33.8628 89.7819L35.9722 87.2228L36.9136 88.0199L34.8855 90.4802C34.175 91.3422 34.1453 92.0489 34.7966 92.6004C35.1281 92.8811 35.5041 92.986 35.9244 92.9151C36.3389 92.8391 36.7386 92.5677 37.1235 92.1007L39.0183 89.802L39.9596 90.5991L37.9316 93.0594C37.221 93.9214 37.1943 94.6307 37.8515 95.1871C38.1771 95.4628 38.5501 95.5652 38.9705 95.4943C39.385 95.4183 39.7847 95.1469 40.1695 94.68L42.0644 92.3813L43.0057 93.1784Z" fill="#F39682"/>
<path d="M32.7055 83.3486C33.0459 83.7816 33.2587 84.2529 33.3439 84.7625C33.4184 85.271 33.3642 85.7727 33.1815 86.2675C32.9928 86.7674 32.6692 87.2148 32.2106 87.6096C31.7521 88.0044 31.2732 88.2479 30.774 88.3402C30.2641 88.4315 29.7784 88.3843 29.317 88.1987C28.8497 88.0181 28.4482 87.7143 28.1125 87.2874C27.7721 86.8544 27.5647 86.3836 27.4902 85.8751C27.405 85.3655 27.4567 84.8608 27.6454 84.3609C27.8233 83.86 28.1416 83.4121 28.6002 83.0173C29.0587 82.6225 29.543 82.3795 30.0529 82.2882C30.5521 82.1959 31.0353 82.24 31.5027 82.4206C31.9641 82.6063 32.365 82.9156 32.7055 83.3486ZM31.903 84.0395C31.7208 83.8078 31.4971 83.6424 31.2319 83.5434C30.962 83.4383 30.6703 83.4184 30.3569 83.4837C30.0376 83.5541 29.7133 83.731 29.3841 84.0144C29.0549 84.2979 28.8295 84.5942 28.7078 84.9035C28.5755 85.2117 28.5326 85.5145 28.5792 85.8119C28.6209 86.1032 28.7328 86.3648 28.915 86.5965C29.0973 86.8283 29.3233 86.9967 29.5932 87.1018C29.8584 87.2008 30.1506 87.2151 30.4699 87.1447C30.7833 87.0794 31.1047 86.905 31.4339 86.6216C31.7631 86.3381 31.9915 86.0393 32.119 85.725C32.2406 85.4157 32.2806 85.1154 32.2389 84.8241C32.1971 84.5328 32.0852 84.2712 31.903 84.0395Z" fill="#F39682"/>
<path d="M29.0607 77.7738L23.9225 80.4029L23.4758 79.3917L24.4073 78.7976C23.9874 78.7863 23.6087 78.6668 23.2711 78.4393C22.9235 78.2083 22.6463 77.8586 22.4395 77.3902L23.5893 76.8019L23.7257 77.1105C23.8636 77.4228 24.0392 77.6766 24.2525 77.872C24.4557 78.0638 24.7111 78.1723 25.0187 78.1977C25.3162 78.2195 25.6756 78.1226 26.0968 77.907L28.5624 76.6455L29.0607 77.7738Z" fill="#F39682"/>
<path d="M26.4951 69.3679C26.6035 69.9237 26.5797 70.4492 26.4237 70.9444C26.2587 71.4338 25.9819 71.8557 25.5933 72.2102C25.2047 72.5646 24.721 72.8154 24.142 72.9625C23.5555 73.1114 23.0175 73.1243 22.5278 73.0009C22.0367 72.8699 21.6255 72.6228 21.2942 72.2594C20.9615 71.8884 20.7394 71.4174 20.6281 70.8463C20.5197 70.2905 20.5495 69.7754 20.7174 69.3012C20.8779 68.8289 21.1388 68.427 21.5003 68.0954C21.8618 67.7638 22.2869 67.536 22.7756 67.4118C22.8508 67.3927 22.9343 67.3755 23.026 67.3602C23.1087 67.3392 23.2034 67.3191 23.3102 67.3L24.1698 71.7087C24.7037 71.5331 25.0824 71.2491 25.3058 70.8567C25.5201 70.4587 25.5857 70.0464 25.5026 69.62C25.4358 69.2774 25.3049 69.0109 25.11 68.8207C24.9061 68.6248 24.6614 68.5031 24.3759 68.4557L24.1399 67.2451C24.6959 67.2636 25.1951 67.4565 25.6376 67.8236C26.0786 68.183 26.3644 68.6978 26.4951 69.3679ZM21.6115 70.6085C21.6902 71.012 21.8803 71.3393 22.1818 71.5904C22.4757 71.8434 22.8662 71.944 23.3533 71.8922L22.7297 68.6941C22.2981 68.8278 21.9826 69.0717 21.7834 69.426C21.5842 69.7803 21.5269 70.1744 21.6115 70.6085Z" fill="#F39682"/>
<path d="M28.058 59.0404L19.7426 58.5174L19.8357 57.4158L20.7407 57.3445C20.4854 57.1419 20.2669 56.8717 20.0853 56.5339C19.9037 56.1961 19.8344 55.7721 19.8775 55.2619C19.9245 54.7053 20.0976 54.2227 20.3968 53.8141C20.6959 53.4055 21.084 53.0958 21.5611 52.8849C22.0388 52.6662 22.5679 52.5752 23.1486 52.6117C23.7293 52.6482 24.2376 52.8045 24.6735 53.0806C25.1023 53.3485 25.4304 53.7033 25.6578 54.145C25.8773 54.5862 25.9633 55.089 25.9156 55.6533C25.8778 56.1017 25.7551 56.4942 25.5477 56.8308C25.3408 57.1598 25.0664 57.4145 24.7242 57.595L28.1619 57.8113L28.058 59.0404ZM24.8296 55.7948C24.874 55.2692 24.7324 54.8251 24.405 54.4626C24.0699 54.0995 23.6119 53.8998 23.0312 53.8633C22.6519 53.8394 22.3085 53.8955 22.0013 54.0316C21.694 54.1677 21.4476 54.3659 21.2622 54.6263C21.069 54.8861 20.9574 55.1938 20.9274 55.5494C20.883 56.0751 21.0283 56.5194 21.3635 56.8824C21.6993 57.2377 22.1537 57.4334 22.7267 57.4694C23.3073 57.5059 23.7937 57.3694 24.1856 57.0599C24.5705 56.7422 24.7852 56.3205 24.8296 55.7948Z" fill="#F39682"/>
<path d="M26.8993 49.2559L21.4418 47.3772L21.7936 46.3292L22.8612 46.5859C22.566 46.271 22.3724 45.909 22.2806 45.5C22.1839 45.0811 22.217 44.629 22.38 44.1436L23.6013 44.564L23.4939 44.8839C23.3853 45.2075 23.3428 45.517 23.3664 45.8122C23.3852 46.0976 23.497 46.3618 23.7019 46.6046C23.9019 46.8375 24.2256 47.031 24.6731 47.185L27.2918 48.0865L26.8993 49.2559Z" fill="#F39682"/>
<path d="M30.7214 41.3703C30.431 41.8383 30.066 42.1912 29.6265 42.429C29.1846 42.6558 28.7092 42.753 28.2001 42.7204C27.6846 42.6835 27.1754 42.4969 26.6724 42.1606C26.1693 41.8243 25.7983 41.4223 25.5592 40.9547C25.3178 40.4762 25.2105 39.9801 25.2372 39.4664C25.2576 38.9484 25.4109 38.4586 25.6972 37.9972C25.9876 37.5292 26.3538 37.1818 26.7957 36.9549C27.2352 36.7172 27.7127 36.6167 28.2282 36.6536C28.7413 36.6795 29.2494 36.8607 29.7524 37.197C30.2554 37.5333 30.6277 37.9407 30.8691 38.4193C31.1082 38.8869 31.2175 39.3797 31.1972 39.8977C31.1704 40.4114 31.0118 40.9023 30.7214 41.3703ZM29.8411 40.7817C29.9965 40.5312 30.0784 40.2596 30.0868 39.9667C30.0992 39.6673 30.0271 39.3718 29.8702 39.0805C29.707 38.7848 29.4448 38.5162 29.0836 38.2748C28.7225 38.0333 28.3817 37.8987 28.0613 37.871C27.7385 37.8324 27.4483 37.8809 27.1908 38.0165C26.9374 38.1455 26.733 38.3353 26.5775 38.5858C26.4221 38.8363 26.3382 39.1112 26.3257 39.4107C26.3173 39.7035 26.3948 39.9978 26.5581 40.2935C26.7149 40.5849 26.9738 40.8513 27.335 41.0927C27.6961 41.3342 28.0402 41.4709 28.367 41.503C28.6875 41.5307 28.9744 41.48 29.2278 41.351C29.4812 41.222 29.6857 41.0322 29.8411 40.7817Z" fill="#F39682"/>
<path d="M30.7284 29.9734C30.5661 30.1402 30.3833 30.2279 30.1801 30.2366C29.9771 30.2341 29.8018 30.1531 29.6541 29.9938C29.5065 29.8345 29.4366 29.6508 29.4446 29.4428C29.4527 29.2235 29.5379 29.0305 29.7003 28.8638C29.8627 28.6971 30.0454 28.615 30.2484 28.6175C30.4516 28.6088 30.627 28.6841 30.7746 28.8434C30.9222 29.0028 30.992 29.1921 30.9839 29.4113C30.976 29.6194 30.8908 29.8067 30.7284 29.9734ZM35.8518 38.2045L35.14 37.4363L35.4567 37.1112C35.6461 36.9167 35.7419 36.7351 35.744 36.5664C35.7514 36.4033 35.6654 36.2251 35.4862 36.0316L31.0334 31.2259L31.8941 30.3423L36.3547 35.1565C36.7818 35.6175 36.9767 36.0614 36.9393 36.4885C36.9072 36.9212 36.6935 37.3404 36.2984 37.746L35.8518 38.2045Z" fill="#F39682"/>
<path d="M40.8449 31.083C40.3703 31.3918 39.8861 31.559 39.3924 31.5846C38.9014 31.5991 38.4403 31.4787 38.0093 31.2233C37.5782 30.9679 37.2146 30.5808 36.9186 30.0619C36.6187 29.5364 36.4561 29.0092 36.4309 28.4805C36.4121 27.9476 36.5213 27.4515 36.7586 26.9922C37.0024 26.5287 37.3681 26.1383 37.8558 25.821C38.3305 25.5121 38.8068 25.3547 39.2848 25.3486C39.759 25.3357 40.1974 25.4477 40.6001 25.6847C41.0028 25.9216 41.3291 26.259 41.579 26.697C41.6175 26.7644 41.6565 26.8406 41.6962 26.9257C41.7384 26.9998 41.7833 27.0862 41.8306 27.1847L38.0656 29.6344C38.375 30.0984 38.7392 30.3695 39.1584 30.4479C39.5803 30.5153 39.9733 30.4305 40.3374 30.1936C40.6301 30.0032 40.8355 29.7771 40.9536 29.5155C41.0745 29.2428 41.1164 28.9568 41.0793 28.6575L42.1132 27.9848C42.2523 28.5411 42.2171 29.1045 42.0077 29.6751C41.8048 30.2414 41.4172 30.7107 40.8449 31.083ZM38.3478 26.7067C38.0031 26.9309 37.759 27.2375 37.6155 27.6266C37.4681 28.009 37.4862 28.4314 37.6699 28.894L40.401 27.117C40.1585 26.7389 39.8483 26.5157 39.4705 26.4474C39.0927 26.3791 38.7184 26.4655 38.3478 26.7067Z" fill="#F39682"/>
<path d="M49.4993 26.9136C48.9584 27.0816 48.4415 27.1083 47.9485 26.9937C47.4629 26.8768 47.0423 26.6384 46.6865 26.2783C46.3363 25.9085 46.0873 25.4342 45.9396 24.8554C45.7919 24.2766 45.781 23.7324 45.9068 23.2227C46.0381 22.7033 46.2832 22.254 46.6422 21.8747C47.0086 21.4932 47.4622 21.2184 48.003 21.0504C48.6846 20.8387 49.3011 20.8419 49.8525 21.06C50.4113 21.2759 50.8361 21.6713 51.1267 22.2462L49.8932 22.6294C49.7405 22.3442 49.5161 22.1543 49.2201 22.0597C48.9241 21.965 48.6057 21.9706 48.2649 22.0765C47.9759 22.1662 47.7284 22.3243 47.5223 22.5505C47.3143 22.7693 47.1726 23.0445 47.0973 23.3762C47.0201 23.7003 47.0343 24.0691 47.1398 24.4825C47.2453 24.896 47.4086 25.2225 47.6296 25.4621C47.8488 25.6942 48.0998 25.8474 48.3826 25.9218C48.6655 25.9962 48.9514 25.9886 49.2403 25.8988C49.5811 25.7929 49.8554 25.6144 50.0631 25.3633C50.2709 25.1122 50.3716 24.8173 50.3651 24.4785L51.5986 24.0954C51.6261 24.7358 51.4535 25.3127 51.0808 25.826C50.708 26.3393 50.1808 26.7019 49.4993 26.9136Z" fill="#F39682"/>
<path d="M57.9167 25.353C57.351 25.3798 56.8995 25.2653 56.5622 25.0096C56.2248 24.7461 56.0508 24.2615 56.0401 23.5556L55.9972 20.7049L55.0092 20.7517L54.9936 19.7162L55.9816 19.6694L56.1106 18.1962L57.1916 18.145L57.2137 19.611L58.841 19.534L58.8566 20.5695L57.2293 20.6466L57.2722 23.4972C57.277 23.8153 57.3462 24.0332 57.4798 24.1511C57.6211 24.2608 57.8583 24.3078 58.1915 24.292L58.8541 24.2607L58.8698 25.3078L57.9167 25.353Z" fill="#F39682"/>
<path d="M65.2578 26.1711C64.5432 26.0258 63.9908 25.7313 63.6006 25.2877C63.2104 24.8442 63.0417 24.327 63.0947 23.7361L64.3149 23.9843C64.3214 24.2548 64.4187 24.5082 64.6068 24.7443C64.7965 24.9729 65.0776 25.1251 65.4501 25.2009C65.815 25.2751 66.0971 25.2534 66.2963 25.1356C66.4955 25.0177 66.6158 24.8602 66.6574 24.6628C66.7181 24.3743 66.641 24.1567 66.4261 24.0101C66.2204 23.8574 65.9211 23.6976 65.5282 23.5306C65.2232 23.3973 64.9231 23.2412 64.6278 23.0624C64.3401 22.8851 64.1114 22.6723 63.9417 22.4241C63.7811 22.1698 63.7384 21.8642 63.8135 21.5074C63.9173 21.014 64.1937 20.6427 64.6425 20.3936C65.0929 20.1369 65.6602 20.0781 66.3443 20.2173C66.9753 20.3457 67.4527 20.6011 67.7765 20.9837C68.1079 21.3677 68.2495 21.8438 68.2013 22.4119L67.0382 22.1753C67.0513 21.9246 66.9772 21.7117 66.8159 21.5363C66.6622 21.3626 66.4295 21.244 66.1178 21.1806C65.8138 21.1187 65.5645 21.1353 65.3701 21.2303C65.1773 21.3178 65.0601 21.4602 65.0186 21.6576C64.9771 21.8549 65.0583 22.0338 65.2624 22.194C65.4741 22.3559 65.7604 22.521 66.1214 22.6894C66.4839 22.8502 66.8128 23.0201 67.1081 23.1989C67.4127 23.3717 67.6414 23.5845 67.7943 23.8372C67.9472 24.09 67.9805 24.4214 67.8943 24.8313C67.7932 25.3491 67.5015 25.737 67.0191 25.9951C66.5443 26.2547 65.9572 26.3134 65.2578 26.1711Z" fill="#F39682"/>
<defs>
<filter id="filter0_b_619_99" x="1.98788" y="1.98755" width="118.024" height="118.024" filterUnits="userSpaceOnUse" color-interpolation-filters="sRGB">
<feFlood flood-opacity="0" result="BackgroundImageFix"/>
<feGaussianBlur in="BackgroundImage" stdDeviation="5"/>
<feComposite in2="SourceAlpha" operator="in" result="effect1_backgroundBlur_619_99"/>
<feBlend mode="normal" in="SourceGraphic" in2="effect1_backgroundBlur_619_99" result="shape"/>
</filter>
</defs>
</svg>
